<?xml version="1.0" standalone="no"?>
<!DOCTYPE svg PUBLIC "-//W3C//DTD SVG 20010904//EN"
 "http://www.w3.org/TR/2001/REC-SVG-20010904/DTD/svg10.dtd">
<svg version="1.0" xmlns="http://www.w3.org/2000/svg"
 width="320" height="216" viewBox="0 0 215.000000 145.000000"
 preserveAspectRatio="xMidYMid meet">

<g transform="translate(0.000000,145.000000) scale(0.100000,-0.100000)"
fill="#4C657E" stroke="none">
<path d="M935 1439 c-22 -6 -74 -26 -115 -47 -226 -112 -356 -389 -295 -627
69 -263 287 -435 551 -435 153 0 279 54 389 164 124 125 171 247 162 426 -3
58 -11 123 -19 145 l-15 39 -8 -59 c-4 -33 -9 -100 -11 -150 -7 -233 -138
-415 -350 -485 -55 -19 -82 -22 -172 -18 -96 3 -114 7 -180 37 -101 47 -106
57 -33 64 77 7 141 39 213 107 l58 55 -19 25 -20 25 -46 -47 c-74 -76 -128
-103 -206 -103 -90 0 -149 36 -194 118 -128 231 -22 547 225 670 184 93 411
62 556 -75 25 -23 37 -28 58 -22 14 3 26 10 26 14 0 4 -19 26 -42 49 -50 48
-159 108 -232 127 -57 15 -220 17 -281 3z"/>
<path d="M1015 1343 c-195 -26 -363 -194 -389 -387 l-6 -49 26 39 c15 21 31
51 36 66 12 33 10 33 83 8 49 -17 82 -20 204 -19 80 1 136 4 124 6 -21 4 -23
10 -23 69 0 63 0 64 28 64 15 0 43 3 64 6 33 6 37 10 41 43 4 25 -1 44 -14 63
-10 15 -19 30 -19 33 0 9 38 -3 83 -26 l37 -19 0 25 c0 31 -37 51 -128 71 -66
14 -89 15 -147 7z m19 -105 l-3 -63 -48 3 c-26 2 -52 7 -57 12 -16 16 70 107
105 110 3 0 4 -28 3 -62z m70 51 c13 -6 38 -31 55 -55 35 -48 36 -46 -46 -59
l-43 -7 0 66 c0 36 2 66 5 66 2 0 15 -5 29 -11z m-184 -24 c0 -5 -19 -37 -36
-63 -5 -7 -44 10 -44 19 0 5 15 18 33 29 32 20 47 25 47 15z m-77 -86 l24 -11
-19 -61 c-10 -34 -21 -63 -23 -65 -6 -6 -115 29 -115 37 0 10 30 53 58 84 28
30 39 32 75 16z m188 -45 c3 -2 5 -29 3 -61 -2 -58 -3 -58 -36 -61 -18 -1 -53
1 -78 6 -44 8 -45 9 -43 43 1 19 7 47 13 63 10 28 11 28 73 21 34 -4 65 -9 68
-11z"/>
<path d="M1320 1153 l0 -107 30 29 c28 27 30 33 30 107 l0 78 -30 0 -30 0 0
-107z"/>
<path d="M1486 1217 l-90 -30 29 -23 28 -22 -24 -29 c-127 -151 -293 -332
-299 -326 -3 4 -36 46 -72 93 -50 65 -72 86 -92 88 l-26 2 0 -144 c0 -80 -3
-151 -6 -160 -5 -12 0 -16 19 -16 38 0 46 19 49 110 l3 83 75 -96 c62 -81 79
-97 102 -97 27 0 28 1 28 59 l0 59 141 161 c77 89 143 161 147 161 3 0 16 -9
28 -21 21 -20 22 -20 28 -2 7 23 27 175 24 178 -2 1 -43 -11 -92 -28z"/>
<path d="M1230 1090 l0 -90 30 0 30 0 0 90 0 90 -30 0 -30 0 0 -90z"/>
<path d="M1140 1055 c0 -54 0 -55 30 -55 30 0 30 1 30 55 0 54 0 55 -30 55
-30 0 -30 -1 -30 -55z"/>
<path d="M713 955 c-58 -25 -77 -101 -35 -138 10 -8 46 -24 82 -34 44 -13 66
-25 68 -37 9 -44 -47 -59 -116 -31 -34 15 -38 15 -49 -1 -20 -27 -16 -34 24
-51 25 -10 58 -14 101 -11 56 4 68 8 89 32 52 61 10 135 -86 151 -55 9 -79 29
-65 52 13 21 92 30 123 14 19 -11 31 2 31 34 0 32 -110 45 -167 20z"/>
<path d="M1146 963 c-3 -4 -6 -34 -6 -67 l1 -61 34 37 c23 25 35 47 35 66 0
25 -4 29 -29 30 -16 0 -32 -2 -35 -5z"/>
<path d="M1401 936 l-23 -24 28 -4 c19 -2 34 -13 44 -30 13 -25 13 -31 0 -55
-14 -24 -23 -28 -68 -31 l-52 -3 0 33 0 33 -35 -40 c-34 -40 -34 -40 -35 -142
0 -57 3 -103 6 -103 3 0 19 9 35 21 26 19 29 26 29 80 l0 59 45 0 c96 0 145
42 145 123 0 40 -5 53 -29 78 -36 35 -60 37 -90 5z"/>
<path d="M1460 708 c-14 -6 -41 -33 -60 -60 -38 -53 -107 -109 -164 -133 -54
-23 -59 -19 -31 28 14 24 25 51 25 60 0 32 -25 16 -53 -33 -23 -43 -75 -90
-99 -90 -5 0 -8 19 -8 42 0 40 0 41 -20 23 -11 -10 -20 -29 -20 -41 0 -21 -2
-22 -24 -13 -18 9 -30 7 -57 -7 l-34 -18 40 -12 c54 -17 182 -17 236 0 120 36
225 119 274 216 14 28 24 50 23 49 -2 -1 -14 -6 -28 -11z"/>
<path d="M20 180 c-37 -37 -18 -75 45 -91 34 -9 45 -16 45 -31 0 -18 -6 -19
-52 -16 -64 4 -76 -16 -21 -32 32 -10 46 -9 76 4 31 12 37 20 37 45 0 33 -6
39 -65 61 -57 22 -53 45 8 44 30 0 47 4 47 12 0 30 -91 33 -120 4z"/>
<path d="M190 105 c0 -88 2 -95 20 -95 16 0 19 8 22 57 l3 57 44 -57 c25 -34
51 -57 62 -57 17 0 19 9 19 95 0 88 -2 95 -20 95 -16 0 -19 -8 -22 -57 l-3
-58 -45 57 c-25 31 -53 57 -62 57 -16 1 -18 -10 -18 -94z"/>
<path d="M410 105 c0 -88 1 -95 20 -95 15 0 20 7 20 25 0 20 5 25 24 25 63 0
105 42 93 93 -8 31 -45 47 -107 47 l-50 0 0 -95z m110 44 c15 -27 -3 -49 -41
-49 -26 0 -29 3 -29 35 0 32 2 35 30 35 19 0 33 -7 40 -21z"/>
<path d="M687 193 c-4 -3 -7 -46 -7 -95 l0 -88 70 0 c56 0 70 3 70 15 0 11
-12 15 -50 15 l-50 0 0 80 c0 60 -3 80 -13 80 -8 0 -17 -3 -20 -7z"/>
<path d="M878 185 c-64 -35 -54 -141 18 -171 73 -31 139 13 139 93 0 37 -5 49
-28 69 -32 28 -87 31 -129 9z m97 -29 c22 -16 26 -76 6 -100 -32 -39 -101 -6
-101 47 0 56 51 85 95 53z"/>
<path d="M1115 188 c-33 -19 -44 -41 -45 -83 0 -51 20 -80 65 -95 26 -9 44 -9
70 0 33 11 35 14 35 55 0 36 -3 43 -17 40 -10 -1 -17 -8 -15 -15 1 -7 0 -21
-3 -31 -8 -25 -56 -25 -78 -1 -22 25 -21 75 1 95 22 20 63 22 80 5 9 -9 15 -9
25 1 30 31 -71 56 -118 29z"/>
<path d="M1290 105 c0 -88 1 -95 20 -95 19 0 20 7 20 95 0 88 -1 95 -20 95
-19 0 -20 -7 -20 -95z"/>
<path d="M1385 184 c-10 -10 -15 -29 -13 -47 3 -27 9 -33 51 -46 32 -10 47
-20 47 -32 0 -22 -26 -28 -64 -16 -21 7 -30 6 -37 -4 -11 -19 15 -32 69 -33
35 -1 48 4 63 23 34 42 17 73 -52 91 -30 8 -39 16 -37 28 3 13 14 17 43 17 41
-1 63 14 42 27 -22 14 -95 9 -112 -8z"/>
<path d="M1530 185 c0 -10 10 -15 30 -15 l30 0 0 -80 c0 -73 2 -80 20 -80 18
0 20 7 20 80 l0 80 30 0 c20 0 30 5 30 15 0 12 -16 15 -80 15 -64 0 -80 -3
-80 -15z"/>
<path d="M1720 105 c0 -88 1 -95 20 -95 19 0 20 7 20 95 0 88 -1 95 -20 95
-19 0 -20 -7 -20 -95z"/>
<path d="M1845 188 c-32 -19 -44 -40 -45 -81 0 -51 15 -76 57 -93 56 -24 125
1 103 36 -7 12 -12 12 -22 2 -18 -18 -62 -15 -81 6 -50 55 9 136 73 102 13 -7
21 -6 30 5 24 29 -70 48 -115 23z"/>
<path d="M2015 184 c-10 -10 -15 -29 -13 -47 3 -27 9 -32 53 -46 69 -22 68
-46 -2 -45 -66 2 -81 -20 -23 -36 48 -13 86 -5 105 23 29 41 10 69 -55 87 -31
8 -40 16 -40 32 0 19 4 20 44 16 31 -4 46 -1 50 7 11 28 -92 36 -119 9z"/>
</g>
</svg>
